<svg xmlns="http://www.w3.org/2000/svg" viewBox="0 0 64 64" style="enable-background:new 0 0 64 64" xml:space="preserve"><path style="fill:#605491" d="M62.92 9.268H1.08A1.08 1.08 0 0 0 0 10.348v43.304c0 .596.483 1.08 1.08 1.08h61.84a1.08 1.08 0 0 0 1.08-1.08V10.348a1.08 1.08 0 0 0-1.08-1.08zm-1.08 43.304H2.16V11.428h59.68v41.144zM11.297 47.25H6.771v-2.16h4.526v-3.382h2.16v3.382h43.772v2.16H13.457v3.382h-2.16V47.25zm14.329-8.436a1.08 1.08 0 0 0 1.068.021l14.231-7.742a1.08 1.08 0 0 0 0-1.898l-14.231-7.742a1.078 1.078 0 0 0-1.595.949v15.485c-.001.379.199.732.527.927zm1.632-14.596 10.891 5.925-10.891 5.925v-11.85z"/><path style="fill:#d4c3f7" d="M2.164 11.43v41.142h59.672V11.43H2.164zM25.1 22.402c0-.378.194-.734.529-.929a1.081 1.081 0 0 1 1.069-.022l14.222 7.742a1.075 1.075 0 0 1 0 1.9l-14.222 7.742a1.086 1.086 0 0 1-1.069-.021 1.069 1.069 0 0 1-.529-.929V22.402zm32.126 24.847H13.459v3.38H11.3v-3.38H6.775v-2.16H11.3v-3.38h2.16v3.38h43.766v2.16z"/></svg>